<?xml version="1.0" encoding="UTF-8" standalone="no"?>
<svg
   xmlns:dc="http://purl.org/dc/elements/1.1/"
   xmlns:cc="http://creativecommons.org/ns#"
   xmlns:rdf="http://www.w3.org/1999/02/22-rdf-syntax-ns#"
   xmlns:svg="http://www.w3.org/2000/svg"
   xmlns="http://www.w3.org/2000/svg"
   xmlns:sodipodi="http://sodipodi.sourceforge.net/DTD/sodipodi-0.dtd"
   xmlns:inkscape="http://www.inkscape.org/namespaces/inkscape"
   version="1.1"
   id="svg2"
   viewBox="0 0 770.15279 266.74545"
   height="75.281494mm"
   width="217.35423mm"
   inkscape:version="0.91 r13725"
   sodipodi:docname="logo.svg">
  <sodipodi:namedview
     pagecolor="#ffffff"
     bordercolor="#666666"
     borderopacity="1"
     objecttolerance="10"
     gridtolerance="10"
     guidetolerance="10"
     inkscape:pageopacity="0"
     inkscape:pageshadow="2"
     inkscape:window-width="1920"
     inkscape:window-height="1057"
     id="namedview3358"
     showgrid="false"
     inkscape:zoom="1.6480583"
     inkscape:cx="438.65903"
     inkscape:cy="97.269343"
     inkscape:window-x="-8"
     inkscape:window-y="-8"
     inkscape:window-maximized="1"
     inkscape:current-layer="svg2" />
  <defs
     id="defs4">
    <filter
       id="filter5087"
       style="color-interpolation-filters:sRGB">
      <feFlood
         id="feFlood5089"
         result="flood"
         flood-color="rgb(0,0,0)"
         flood-opacity="0.498039" />
      <feComposite
         id="feComposite5091"
         result="composite1"
         operator="in"
         in2="SourceGraphic"
         in="flood" />
      <feGaussianBlur
         id="feGaussianBlur5093"
         result="blur"
         stdDeviation="1.5625"
         in="composite1" />
      <feOffset
         id="feOffset5095"
         result="offset"
         dy="-2.6"
         dx="1.38778e-016" />
      <feComposite
         id="feComposite5097"
         result="composite2"
         operator="over"
         in2="offset"
         in="SourceGraphic" />
    </filter>
    <filter
       id="filter5207"
       style="color-interpolation-filters:sRGB">
      <feFlood
         id="feFlood5209"
         result="flood"
         flood-color="rgb(0,0,0)"
         flood-opacity="0.498039" />
      <feComposite
         id="feComposite5211"
         result="composite1"
         operator="in"
         in2="SourceGraphic"
         in="flood" />
      <feGaussianBlur
         id="feGaussianBlur5213"
         result="blur"
         stdDeviation="1.6"
         in="composite1" />
      <feOffset
         id="feOffset5215"
         result="offset"
         dy="1.58854"
         dx="0" />
      <feComposite
         id="feComposite5217"
         result="composite2"
         operator="over"
         in2="offset"
         in="SourceGraphic" />
    </filter>
  </defs>
  <metadata
     id="metadata7">
    <rdf:RDF>
      <cc:Work
         rdf:about="">
        <dc:format>image/svg+xml</dc:format>
        <dc:type
           rdf:resource="http://purl.org/dc/dcmitype/StillImage" />
        <dc:title />
      </cc:Work>
    </rdf:RDF>
  </metadata>
  <g
     transform="translate(395.50996,-328.07651)"
     id="layer1">
    <g
       style="font-style:normal;font-variant:normal;font-weight:300;font-stretch:normal;font-size:180px;line-height:125%;font-family:Roboto;-inkscape-font-specification:'Roboto Light';letter-spacing:0px;word-spacing:0px;fill:#3f51b5;fill-opacity:1;stroke:none;stroke-width:1px;stroke-linecap:butt;stroke-linejoin:miter;stroke-opacity:1"
       id="text4136">
      <path
         d="m -315.77985,459.82034 q 0,-9.84375 -7.82226,-16.25976 -7.82227,-6.41602 -26.54297,-12.04102 -20.47852,-5.625 -31.20117,-13.97461 -10.63477,-8.4375 -10.63477,-22.85156 0,-14.67773 11.95313,-24.08203 11.95312,-9.49219 30.49804,-9.49219 19.51172,0 31.37696,10.72266 11.86523,10.63476 11.51367,27.07031 l -0.17578,0.52734 -9.84375,0 q 0,-12.65625 -9.22852,-21.00586 -9.14062,-8.34961 -23.64258,-8.34961 -14.9414,0 -23.46679,7.11915 -8.4375,7.03125 -8.4375,17.31445 0,9.75586 7.64648,16.08398 7.73438,6.24024 27.1582,11.68946 20.21485,5.88867 30.84961,14.50195 10.63477,8.61328 10.63477,22.85156 0,14.94141 -12.48047,24.08203 -12.39258,9.05274 -31.28906,9.05274 -18.89649,0 -32.95899,-9.58008 -14.0625,-9.66797 -13.62304,-28.125 l 0.17578,-0.52734 9.75586,0 q 0,14.85351 11.16211,22.14843 11.16211,7.20703 25.48828,7.20703 14.67773,0 23.90625,-6.67968 9.22851,-6.76758 9.22851,-17.40235 z"
         style=""
         id="path3361" />
      <path
         d="m -219.53961,475.46487 q -4.57031,8.34961 -12.30469,12.83204 -7.64648,4.48242 -18.19336,4.48242 -15.0293,0 -23.55469,-10.19532 -8.52539,-10.19531 -8.52539,-31.64062 l 0,-55.10742 10.54688,0 0,55.2832 q 0,17.40234 5.88867,24.96094 5.97656,7.55859 16.875,7.55859 11.86523,0 18.89648,-5.27344 7.11915,-5.36132 10.01954,-14.58984 l 0,-67.93945 10.54687,0 0,95.09765 -9.31641,0 -0.8789,-15.46875 z"
         style=""
         id="path3363" />
      <path
         d="m -104.93024,446.02151 q 0,21.35743 -9.66797,34.10157 -9.66796,12.65625 -26.63085,12.65625 -10.3711,0 -18.01758,-4.13086 -7.5586,-4.21875 -12.30469,-11.95313 l -1.75781,14.23828 -8.26172,0 0,-137.10937 10.54687,0 0,56.60156 q 4.7461,-7.82226 12.12891,-12.04101 7.38281,-4.30664 17.49023,-4.30664 17.13868,0 26.80664,13.71093 9.66797,13.62305 9.66797,36.38672 l 0,1.8457 z m -10.63476,-1.8457 q 0,-18.19336 -7.03125,-29.53125 -7.03125,-11.42578 -20.83008,-11.42578 -10.89844,0 -17.57813,5.36133 -6.67968,5.27344 -10.01953,13.71094 l 0,43.50586 q 3.51563,8.26171 10.3711,13.0957 6.94336,4.74609 17.40234,4.74609 13.79883,0 20.74219,-10.19531 6.94336,-10.19531 6.94336,-27.42188 l 0,-1.8457 z"
         style=""
         id="path3365" />
      <path
         d="m -68.982971,395.83597 0,102.91992 q 0,14.67773 -7.03125,22.58789 -7.03125,7.99805 -19.511719,7.99805 -2.636719,0 -4.92187,-0.43946 -2.37305,-0.43945 -4.92188,-1.23046 l 1.14258,-8.87696 q 1.40625,0.43946 3.86719,0.87891 2.460933,0.43945 4.306636,0.43945 7.822266,0 12.216797,-5.44922 4.394531,-5.36133 4.394531,-15.9082 l 0,-102.91992 10.458985,0 z m -0.527344,-27.59766 -10.458984,0 0,-14.41406 10.458984,0 0,14.41406 z"
         style=""
         id="path3367" />
      <path
         d="m -2.7134399,492.77933 q -18.4570311,0 -29.9707031,-13.00782 -11.513672,-13.0957 -11.513672,-33.57421 l 0,-4.83399 q 0,-20.5664 11.601563,-33.92578 11.689453,-13.35937 28.9160152,-13.35937 17.3144528,0 26.7187498,11.1621 9.492188,11.07422 9.492188,29.88282 l 0,8.17383 -66.181641,0 0,2.90039 q 0,16.25976 8.173828,26.98242 8.261719,10.72265 22.7636721,10.72265 8.7011718,0 15.9960939,-2.8125 7.294922,-2.90039 12.128906,-7.73437 l 4.482422,7.20703 q -5.009766,5.27344 -13.183594,8.78906 -8.0859373,3.42774 -19.4238279,3.42774 z M -3.6802368,403.043 q -12.1289062,0 -19.9511722,8.70117 -7.822265,8.70117 -9.140625,22.06055 l 0.263672,0.52734 54.492188,0 0,-2.19726 q 0,-12.65625 -6.679688,-20.83008 Q 8.7123413,403.043 -3.6802368,403.043 Z"
         style=""
         id="path3369" />
      <path
         d="m 88.780701,483.90237 q 10.107422,0 17.841799,-5.97656 7.82226,-5.97656 7.82226,-16.61133 l 9.4043,0 0.17578,0.52735 q 0.35156,13.18359 -10.37109,22.06054 -10.72266,8.87696 -24.873049,8.87696 -18.984375,0 -29.619141,-13.35938 Q 48.614685,466.06058 48.614685,445.2305 l 0,-3.69141 q 0,-20.74218 10.546875,-34.10156 10.546875,-13.35937 29.53125,-13.35937 15.29297,0 25.48828,9.22851 10.19531,9.22852 9.84375,24.25781 l -0.17578,0.52735 -9.4043,0 q 0,-11.42578 -7.4707,-18.19336 -7.470703,-6.85547 -18.28125,-6.85547 -14.941406,0 -22.236328,10.98633 -7.294922,10.98633 -7.294922,27.50976 l 0,3.69141 q 0,16.78711 7.294922,27.77344 7.294922,10.89843 22.324219,10.89843 z"
         style=""
         id="path3371" />
      <path
         d="m 163.22406,371.49026 0,24.34571 20.91797,0 0,8.61328 -20.91797,0 0,61.96289 q 0,9.31641 3.33984,13.27148 3.42774,3.86719 9.05274,3.86719 1.93359,0 3.6914,-0.17578 1.84571,-0.26367 4.30665,-0.79102 l 1.58203,7.82227 q -2.10938,1.05469 -5.27344,1.66992 -3.07617,0.70313 -6.15234,0.70313 -10.01954,0 -15.64454,-6.32813 -5.53711,-6.32812 -5.53711,-20.03906 l 0,-61.96289 -16.43554,0 0,-8.61328 16.43554,0 0,-24.34571 10.63477,0 z"
         style=""
         id="path3373" />
    </g>
    <g
       style="font-style:normal;font-variant:normal;font-weight:300;font-stretch:normal;font-size:121.17999268px;line-height:125%;font-family:Roboto;-inkscape-font-specification:'Roboto Light';letter-spacing:0px;word-spacing:0px;fill:#ff4081;fill-opacity:1;stroke:none;stroke-width:1px;stroke-linecap:butt;stroke-linejoin:miter;stroke-opacity:1"
       id="text4140">
      <path
         d="m -49.507382,554.6456 0,38.93381 -7.10039,0 0,-86.09223 28.69741,0 q 13.845761,0 21.2420008,6.0945 7.39623977,6.03533 7.39623977,17.6918 0,6.86371 -3.96438457,12.30735 -3.9052146,5.38446 -11.123945,7.86959 7.9879394,2.01178 11.4789646,7.21873 3.55019505,5.14779 3.55019505,12.95822 l 0,8.10628 q 0,4.02355 0.94671865,7.21873 0.9467187,3.19517 3.1360057,5.20695 l 0,1.42008 -7.21873,0 q -2.189287,-2.13012 -3.0768358,-5.97617 -0.8875487,-3.84604 -0.8875487,-7.98793 l 0,-7.8696 q 0,-7.92877 -5.1477825,-12.48486 -5.088613,-4.61525 -14.259951,-4.61525 l -23.667967,0 z m 0,-6.03533 20.768641,0 q 11.656474,0 17.040937,-4.67442 5.3844623,-4.7336 5.3844623,-12.72154 0,-8.52047 -5.3844623,-13.07655 -5.325293,-4.61525 -16.212558,-4.61525 l -21.59702,0 0,35.08776 z"
         style=""
         id="path3376" />
      <path
         d="m 45.282826,594.82198 q -12.425683,0 -20.176942,-8.75715 -7.751259,-8.81632 -7.751259,-22.60291 l 0,-3.25435 q 0,-13.84576 7.810429,-22.83959 7.869599,-8.99382 19.466903,-8.99382 11.656474,0 17.987655,7.51458 6.390352,7.45541 6.390352,20.11777 l 0,5.5028 -44.554949,0 0,1.95261 q 0,10.94643 5.502802,18.16516 5.561973,7.21873 15.325009,7.21873 5.857822,0 10.768925,-1.89343 4.911104,-1.95261 8.165449,-5.20696 l 3.017666,4.85194 q -3.372685,3.55019 -8.875488,5.91699 -5.443632,2.30763 -13.076552,2.30763 z m -0.650869,-60.41249 q -8.165448,0 -13.431571,5.85782 -5.266123,5.85782 -6.153672,14.85165 l 0.17751,0.35502 36.685349,0 0,-1.47925 q 0,-8.52047 -4.496913,-14.02327 -4.437744,-5.56197 -12.780703,-5.56197 z"
         style=""
         id="path3378" />
      <path
         d="m 88.299352,593.57941 0,-58.2232 -10.591415,0 0,-5.79865 10.591415,0 0,-9.34885 q 0,-9.6447 4.851933,-14.91082 4.851934,-5.26612 13.549915,-5.26612 1.89343,0 3.90521,0.29585 2.01178,0.29585 4.1419,0.82837 l -0.94672,5.85783 q -1.42008,-0.35502 -2.89933,-0.53253 -1.47925,-0.23668 -3.49102,-0.23668 -5.79866,0 -8.934662,3.66853 -3.076836,3.66854 -3.076836,10.29557 l 0,9.34885 14.496628,0 0,5.79865 -14.496628,0 0,58.2232 -7.10039,0 z"
         style=""
         id="path3380" />
      <path
         d="m 151.72951,535.65206 -5.02944,-0.35502 q -6.6862,0 -11.0056,3.78687 -4.26024,3.72771 -6.09451,10.29557 l 0,44.19993 -7.10039,0 0,-64.02185 6.21284,0 0.88755,10.65058 0,0.71004 q 2.78099,-5.91699 7.45541,-9.23051 4.67443,-3.31351 11.12395,-3.31351 1.30174,0 2.48513,0.23668 1.1834,0.17751 1.95261,0.41419 l -0.88755,6.62703 z"
         style=""
         id="path3382" />
      <path
         d="m 187.05396,594.82198 q -12.42568,0 -20.17694,-8.75715 -7.75126,-8.81632 -7.75126,-22.60291 l 0,-3.25435 q 0,-13.84576 7.81043,-22.83959 7.8696,-8.99382 19.4669,-8.99382 11.65647,0 17.98766,7.51458 6.39035,7.45541 6.39035,20.11777 l 0,5.5028 -44.55495,0 0,1.95261 q 0,10.94643 5.5028,18.16516 5.56197,7.21873 15.32501,7.21873 5.85782,0 10.76892,-1.89343 4.91111,-1.95261 8.16545,-5.20696 l 3.01767,4.85194 q -3.37269,3.55019 -8.87549,5.91699 -5.44363,2.30763 -13.07655,2.30763 z m -0.65087,-60.41249 q -8.16545,0 -13.43157,5.85782 -5.26612,5.85782 -6.15367,14.85165 l 0.17751,0.35502 36.68535,0 0,-1.47925 q 0,-8.52047 -4.49692,-14.02327 -4.43774,-5.56197 -12.7807,-5.56197 z"
         style=""
         id="path3384" />
      <path
         d="m 263.56066,577.18934 q 0,-4.49691 -3.72771,-7.81043 -3.66853,-3.37269 -13.31323,-5.5028 -11.36062,-2.3668 -16.92259,-6.44952 -5.50281,-4.1419 -5.50281,-11.53814 0,-7.33707 6.15368,-12.42568 6.21284,-5.08861 16.39006,-5.08861 10.70976,0 17.10011,5.44363 6.39035,5.38446 6.0945,13.31323 l -0.11834,0.35502 -6.56786,0 q 0,-5.26612 -4.55608,-9.17134 -4.49692,-3.90521 -11.95233,-3.90521 -7.69209,0 -11.5973,3.37268 -3.90522,3.37269 -3.90522,7.8696 0,4.37858 3.31352,7.2779 3.37268,2.84016 13.3724,5.02945 11.24229,2.48513 16.98177,6.92288 5.79865,4.43774 5.79865,11.95232 0,7.98794 -6.50869,13.01738 -6.44952,4.97028 -17.10011,4.97028 -11.65647,0 -18.34267,-5.56198 -6.62703,-5.56197 -6.27201,-13.25406 l 0.11834,-0.35502 6.50869,0 q 0.41419,6.92288 5.62114,10.05889 5.26612,3.136 12.36651,3.136 7.69209,0 12.12984,-3.43185 4.43774,-3.43186 4.43774,-8.22462 z"
         style=""
         id="path3386" />
      <path
         d="m 294.09235,540.44482 q 3.25434,-5.73948 8.52047,-8.87549 5.32529,-3.19517 12.42568,-3.19517 10.11806,0 15.50252,6.27201 5.44363,6.27201 5.44363,19.4669 l 0,39.46634 -7.10039,0 0,-39.58468 q 0,-10.4139 -4.14189,-14.91082 -4.08273,-4.55608 -11.30146,-4.55608 -7.45541,0 -12.30734,3.66853 -4.79276,3.60937 -7.04122,9.70387 l 0,45.67918 -7.10039,0 0,-92.30508 7.10039,0 0,39.17049 z"
         style=""
         id="path3388" />
    </g>
    <path
       id="rect4146"
       d="m 209.64286,343.07651 150,0 0,150 -150,0 z"
       style="fill:#3f51b5;fill-opacity:1;stroke:none;stroke-width:3;stroke-miterlimit:4;stroke-dasharray:none;stroke-opacity:1;filter:url(#filter5207)" />
    <path
       style="fill:#ff4081;fill-opacity:1;stroke:none;stroke-width:3;stroke-miterlimit:4;stroke-dasharray:none;stroke-opacity:1;filter:url(#filter5087)"
       d="m 359.64286,343.07651 0,150 -150,0"
       id="path4153" />
  </g>
</svg>
